<?xml version="1.0" standalone="no"?>
<!DOCTYPE svg PUBLIC "-//W3C//DTD SVG 20010904//EN"
 "http://www.w3.org/TR/2001/REC-SVG-20010904/DTD/svg10.dtd">
<svg version="1.0" xmlns="http://www.w3.org/2000/svg"
 width="2560.000000pt" height="2560.000000pt" viewBox="0 0 2560.000000 2560.000000"
 preserveAspectRatio="xMidYMid meet">
<metadata>
Created by potrace 1.11, written by Peter Selinger 2001-2013
</metadata>
<g transform="translate(0.000000,2560.000000) scale(0.100000,-0.100000)"
fill="#000000" stroke="none">
<path d="M12847 23934 c-1 -1 -87 -4 -192 -8 -104 -4 -219 -8 -255 -11 -136
-9 -246 -16 -285 -20 -22 -3 -71 -7 -110 -10 -38 -3 -83 -7 -100 -9 -16 -2
-57 -7 -90 -11 -33 -3 -73 -8 -90 -10 -16 -2 -52 -7 -80 -10 -62 -8 -96 -12
-214 -31 -51 -8 -108 -16 -125 -19 -30 -4 -180 -30 -241 -42 -16 -3 -39 -7
-50 -8 -11 -2 -87 -17 -170 -35 -82 -17 -161 -33 -175 -36 -14 -3 -43 -10 -65
-15 -22 -5 -51 -12 -65 -15 -408 -86 -1267 -365 -1675 -544 -565 -247 -969
-452 -1420 -723 -259 -155 -723 -470 -939 -637 -88 -68 -416 -331 -455 -365
-126 -110 -315 -277 -361 -321 -30 -29 -71 -67 -90 -84 -178 -162 -570 -572
-751 -785 -19 -22 -36 -42 -39 -45 -41 -41 -345 -422 -458 -575 -45 -60 -86
-115 -91 -121 -43 -52 -331 -483 -422 -630 -65 -107 -229 -385 -229 -390 0 -2
-10 -21 -23 -42 -58 -92 -275 -515 -369 -717 -64 -139 -168 -374 -168 -381 0
-3 -6 -20 -14 -37 -49 -108 -199 -501 -246 -647 -87 -271 -118 -369 -154 -495
-39 -135 -54 -190 -62 -220 -1 -5 -20 -82 -42 -170 -23 -88 -51 -204 -62 -259
-12 -54 -24 -108 -26 -120 -24 -104 -108 -585 -119 -681 -4 -27 -8 -61 -11
-75 -3 -21 -23 -186 -49 -415 -2 -22 -7 -78 -11 -125 -3 -47 -8 -101 -9 -120
-3 -32 -10 -141 -20 -340 -5 -93 -5 -717 0 -820 2 -41 6 -136 10 -210 9 -192
23 -387 30 -434 2 -11 6 -57 10 -102 3 -44 7 -92 9 -105 7 -39 15 -110 21
-172 4 -32 8 -68 11 -80 2 -12 7 -44 10 -72 42 -361 208 -1122 344 -1570 93
-308 251 -760 324 -930 7 -16 48 -113 91 -215 136 -322 342 -744 488 -1000 11
-19 39 -69 62 -110 23 -41 51 -89 61 -107 22 -36 94 -157 109 -182 25 -42 88
-139 194 -301 276 -420 555 -787 896 -1179 426 -490 1042 -1070 1535 -1443 41
-32 80 -61 85 -65 85 -68 412 -301 572 -405 644 -423 1444 -834 2083 -1071 52
-20 138 -51 190 -71 299 -110 644 -216 1018 -312 95 -24 483 -112 532 -120 14
-3 70 -13 125 -24 94 -18 230 -41 320 -55 22 -3 51 -7 65 -10 63 -10 210 -29
305 -40 28 -3 68 -9 90 -12 44 -6 66 -8 166 -18 117 -11 152 -14 239 -20 47
-4 108 -8 135 -10 290 -24 1012 -24 1355 -1 93 7 236 18 265 21 17 1 66 6 110
9 44 4 91 9 105 11 14 3 48 7 75 10 56 7 195 24 240 30 94 14 253 37 275 40
14 2 70 11 124 20 55 9 102 18 105 20 3 1 24 6 46 9 37 6 103 18 165 32 14 3
36 7 49 10 12 3 53 12 90 20 36 9 77 18 91 21 67 12 404 99 560 143 96 28 198
57 225 65 126 35 756 260 840 299 17 8 55 24 85 36 57 23 83 33 164 69 27 12
72 31 100 42 79 31 778 382 896 451 158 91 418 246 475 283 313 201 583 388
785 544 89 68 317 249 336 266 6 6 35 30 65 55 52 44 283 244 305 265 6 5 55
51 110 100 194 177 509 499 743 760 379 421 838 1043 1134 1532 34 57 75 124
91 150 119 197 387 705 493 938 23 50 55 120 72 157 17 37 31 69 31 72 0 2 13
33 28 68 16 35 37 83 47 108 10 25 24 60 32 77 75 173 237 632 327 923 90 292
234 870 261 1045 3 22 10 56 15 75 5 19 11 51 14 70 3 19 16 103 30 185 29
174 34 206 42 277 3 29 9 71 14 93 4 22 8 47 8 55 1 27 12 135 17 160 3 14 7
57 10 95 3 39 7 84 10 100 7 56 21 250 32 460 14 257 8 831 -12 1184 -9 159
-37 482 -50 581 -2 19 -7 55 -10 80 -3 25 -10 77 -16 115 -5 39 -12 93 -14
120 -3 28 -7 57 -10 65 -2 8 -7 33 -10 55 -3 23 -7 50 -9 60 -2 11 -7 40 -11
65 -23 153 -96 518 -140 700 -69 291 -168 638 -261 919 -62 184 -179 509 -209
576 -7 17 -28 66 -45 110 -18 44 -40 98 -50 120 -9 22 -48 110 -86 195 -113
257 -320 665 -463 915 -35 61 -72 126 -83 145 -89 155 -323 520 -458 715 -475
682 -1118 1401 -1726 1930 -177 154 -203 176 -309 262 -795 643 -1596 1133
-2525 1543 -578 256 -1465 543 -1990 644 -14 2 -54 11 -90 20 -60 14 -480 90
-560 102 -19 2 -44 6 -55 9 -11 2 -47 7 -80 10 -33 4 -67 8 -75 10 -8 2 -37 7
-65 10 -27 3 -84 10 -125 15 -112 15 -148 18 -225 25 -38 3 -90 7 -115 9 -137
12 -331 24 -495 32 -118 6 -623 12 -628 8z m693 -668 c36 -3 112 -8 170 -11
58 -4 121 -8 140 -10 19 -2 73 -6 120 -10 47 -3 96 -8 110 -10 14 -2 50 -7 80
-10 62 -7 104 -12 164 -20 22 -3 57 -8 76 -10 74 -10 316 -45 336 -49 12 -2
39 -7 60 -10 22 -4 84 -15 139 -26 55 -11 109 -22 120 -24 31 -6 171 -36 265
-57 47 -11 96 -22 110 -24 14 -3 66 -17 115 -30 50 -14 140 -38 200 -54 61
-17 171 -49 245 -72 74 -22 155 -47 180 -54 105 -31 458 -160 690 -253 116
-47 211 -87 385 -165 137 -61 607 -299 727 -368 67 -38 123 -69 125 -69 8 0
377 -229 518 -322 147 -97 513 -353 525 -368 3 -3 66 -53 140 -110 479 -371
1000 -862 1391 -1310 148 -169 188 -218 328 -395 78 -99 148 -187 154 -195
139 -175 416 -588 617 -920 142 -234 365 -652 457 -856 12 -27 40 -88 62 -135
78 -169 169 -386 264 -634 118 -305 337 -1028 372 -1227 3 -17 8 -34 10 -38 2
-4 6 -20 9 -36 3 -16 17 -83 31 -149 24 -109 58 -283 70 -360 3 -16 7 -41 10
-55 3 -14 7 -38 9 -55 3 -16 10 -59 15 -95 6 -36 13 -85 16 -110 3 -25 10 -72
15 -105 5 -33 12 -87 15 -120 3 -33 8 -71 10 -85 2 -14 7 -56 10 -95 3 -38 8
-90 11 -115 10 -98 19 -229 29 -400 5 -93 17 -474 18 -555 0 -77 -14 -517 -18
-570 -2 -22 -6 -89 -10 -150 -3 -60 -8 -117 -10 -125 -2 -8 -6 -51 -9 -95 -4
-44 -8 -89 -10 -100 -2 -11 -7 -51 -10 -90 -4 -38 -9 -81 -11 -95 -3 -22 -11
-81 -20 -157 -2 -13 -6 -42 -10 -65 -4 -24 -9 -56 -11 -73 -3 -16 -13 -79 -24
-140 -11 -60 -22 -128 -26 -150 -3 -22 -7 -42 -9 -45 -2 -3 -6 -26 -10 -50 -4
-25 -13 -76 -21 -115 -9 -38 -17 -78 -19 -89 -31 -144 -90 -387 -117 -480 -11
-38 -21 -76 -23 -85 -8 -39 -80 -279 -125 -416 -108 -334 -253 -713 -369 -970
-10 -22 -34 -74 -52 -115 -87 -196 -353 -713 -401 -782 -11 -16 -16 -28 -12
-28 4 0 0 -8 -8 -17 -8 -10 -50 -76 -92 -148 -115 -195 -281 -452 -398 -619
-77 -109 -289 -398 -298 -406 -3 -3 -21 -25 -40 -50 -40 -53 -243 -302 -281
-345 -15 -16 -62 -70 -105 -120 -138 -158 -183 -205 -449 -470 -218 -218 -344
-335 -629 -582 -59 -52 -284 -232 -371 -297 -49 -37 -98 -74 -107 -81 -91 -74
-543 -384 -685 -470 -18 -11 -76 -47 -130 -80 -54 -33 -107 -65 -118 -71 -11
-6 -49 -28 -85 -49 -36 -20 -87 -50 -115 -65 -27 -15 -93 -51 -145 -80 -94
-51 -479 -243 -595 -295 -111 -50 -489 -206 -605 -250 -209 -78 -638 -222
-715 -240 -11 -2 -58 -16 -105 -30 -47 -14 -94 -27 -105 -30 -11 -2 -99 -25
-195 -49 -96 -25 -186 -47 -200 -50 -28 -5 -165 -35 -192 -42 -37 -9 -64 -14
-102 -20 -22 -3 -43 -7 -46 -9 -3 -2 -26 -6 -50 -10 -25 -3 -53 -8 -63 -11
-10 -3 -30 -7 -45 -9 -15 -2 -56 -8 -92 -14 -36 -6 -83 -13 -105 -16 -22 -3
-51 -8 -65 -10 -43 -8 -84 -14 -130 -19 -25 -3 -54 -8 -65 -10 -11 -2 -49 -7
-85 -11 -36 -3 -81 -8 -100 -10 -19 -2 -66 -7 -105 -11 -38 -3 -83 -8 -100 -9
-16 -2 -70 -6 -120 -10 -49 -4 -105 -8 -125 -10 -267 -25 -1047 -25 -1345 0
-27 2 -90 6 -140 10 -49 3 -101 8 -115 10 -14 2 -59 7 -100 10 -107 9 -287 29
-355 40 -68 11 -92 15 -130 20 -42 6 -87 13 -120 19 -11 2 -42 7 -70 11 -27 3
-95 15 -150 26 -55 11 -116 22 -135 25 -50 8 -324 70 -465 106 -66 16 -127 32
-135 34 -113 28 -351 96 -390 111 -8 3 -20 7 -25 8 -126 28 -805 279 -1003
371 -29 13 -55 24 -57 24 -33 0 -693 328 -873 433 -35 20 -65 37 -67 37 -3 0
-91 52 -197 116 -436 263 -837 545 -1253 883 -282 228 -711 634 -1002 946
-291 314 -625 728 -878 1090 -64 91 -172 251 -176 262 -2 4 -30 48 -62 96
-345 526 -726 1287 -959 1922 -57 156 -188 552 -223 675 -19 69 -39 139 -45
155 -16 51 -108 424 -130 530 -11 55 -25 118 -30 140 -10 43 -45 225 -55 290
-4 22 -10 65 -15 95 -16 96 -29 183 -35 235 -3 28 -9 64 -12 80 -3 17 -7 41
-8 55 -9 97 -17 167 -20 180 -2 8 -7 51 -10 95 -3 44 -8 98 -10 120 -41 382
-51 1182 -20 1570 2 28 7 86 10 130 3 44 8 98 10 120 3 22 7 67 10 100 3 33
10 98 16 145 5 47 12 103 15 125 2 22 6 51 9 65 3 14 7 43 10 65 9 74 18 135
29 195 3 14 8 41 10 60 7 46 12 74 37 205 12 61 23 121 26 135 2 13 13 60 23
105 10 45 21 92 23 105 18 92 107 433 171 655 47 161 222 674 256 750 5 11 23
56 40 100 18 44 36 89 41 100 4 11 37 88 73 170 105 246 318 682 395 813 17
29 31 55 31 57 0 8 211 365 295 499 497 792 1166 1586 1831 2171 6 6 29 26 50
45 402 361 921 747 1399 1040 66 40 131 80 145 89 14 9 34 21 45 27 11 6 85
48 165 94 153 87 583 308 735 377 514 234 928 388 1450 537 219 63 419 116
498 132 10 2 26 5 35 8 9 3 28 7 42 10 14 3 34 7 45 9 33 8 328 66 360 71 17
3 68 12 115 20 127 22 201 34 260 41 19 2 51 7 70 10 19 3 55 7 80 10 25 3 65
8 90 11 25 3 59 7 75 9 65 8 224 23 327 31 40 2 93 7 118 9 25 2 122 7 215 11
94 4 171 8 173 9 5 4 731 -4 792 -9z"/>
<path d="M12787 23153 c-1 0 -78 -4 -172 -8 -93 -3 -186 -8 -205 -9 -19 -2
-75 -7 -125 -11 -49 -3 -108 -8 -130 -10 -22 -2 -74 -6 -115 -10 -41 -3 -86
-8 -100 -10 -14 -2 -50 -6 -80 -10 -135 -16 -192 -23 -240 -30 -14 -2 -45 -7
-70 -10 -25 -3 -82 -12 -127 -21 -45 -8 -101 -17 -125 -20 -24 -3 -59 -10 -78
-14 -19 -5 -52 -12 -74 -16 -21 -3 -46 -7 -55 -9 -9 -2 -50 -11 -91 -20 -41
-9 -91 -18 -110 -21 -57 -9 -525 -130 -655 -169 -66 -20 -127 -38 -135 -40
-135 -33 -739 -250 -905 -325 -11 -5 -94 -41 -185 -81 -328 -143 -788 -379
-1063 -545 -49 -30 -90 -54 -92 -54 -8 0 -324 -205 -475 -308 -217 -147 -410
-291 -677 -506 -341 -274 -799 -707 -1083 -1026 -47 -52 -88 -97 -91 -100 -15
-13 -264 -306 -335 -395 -233 -290 -506 -677 -701 -995 -49 -80 -93 -152 -96
-160 -4 -8 -21 -35 -37 -60 -16 -25 -38 -61 -48 -80 -10 -19 -33 -62 -52 -95
-141 -249 -328 -630 -450 -917 -34 -79 -65 -152 -70 -163 -108 -242 -343 -943
-415 -1235 -2 -8 -22 -89 -44 -180 -23 -91 -60 -255 -82 -365 -45 -221 -44
-214 -59 -305 -5 -36 -12 -74 -14 -85 -6 -33 -19 -119 -21 -140 -1 -11 -10
-69 -18 -130 -9 -60 -19 -135 -22 -165 -3 -30 -8 -71 -10 -90 -6 -38 -10 -82
-20 -205 -4 -44 -8 -96 -10 -115 -2 -19 -7 -93 -10 -165 -4 -71 -9 -157 -10
-190 -9 -161 -3 -784 10 -970 3 -44 8 -118 10 -165 3 -47 7 -103 9 -125 2 -22
7 -74 10 -115 4 -41 11 -109 16 -150 5 -41 12 -95 14 -120 10 -84 16 -135 21
-160 3 -14 7 -47 10 -75 4 -27 15 -99 25 -160 11 -60 21 -123 24 -140 65 -408
236 -1066 397 -1525 92 -262 211 -562 295 -748 13 -29 24 -54 24 -56 0 -14
228 -479 310 -631 306 -572 722 -1192 1121 -1670 73 -88 136 -162 139 -165 3
-3 39 -43 80 -90 41 -47 98 -110 127 -140 28 -30 61 -66 73 -80 86 -101 485
-489 669 -650 41 -36 79 -70 85 -75 98 -95 581 -473 791 -620 207 -145 674
-445 693 -445 3 0 13 -6 21 -14 17 -14 37 -25 321 -179 154 -83 602 -307 615
-307 2 0 32 -13 67 -29 102 -47 255 -110 378 -158 63 -24 124 -47 135 -52 21
-10 54 -22 70 -27 6 -2 48 -17 95 -34 401 -148 982 -308 1430 -395 227 -44
547 -96 675 -110 72 -7 146 -16 175 -20 14 -2 59 -7 100 -10 41 -3 89 -8 105
-10 17 -2 75 -7 130 -11 55 -3 118 -8 140 -10 216 -17 811 -23 1055 -9 74 4
162 8 195 10 33 2 92 6 130 9 39 4 97 9 130 12 135 11 378 37 455 49 14 2 48
6 75 10 28 3 127 19 220 35 227 39 210 36 380 71 83 17 159 33 170 35 164 31
735 190 990 275 103 35 360 127 390 139 11 5 90 37 175 71 85 34 173 70 195
80 22 9 74 32 115 50 204 87 602 286 782 390 36 22 69 39 72 39 4 0 108 61
231 135 425 255 790 510 1165 814 98 80 355 297 390 331 9 8 60 56 115 105
194 177 508 498 701 715 769 867 1362 1823 1808 2913 64 157 182 481 226 622
17 55 36 111 42 125 11 29 155 539 161 573 2 12 6 29 9 37 5 14 22 85 33 135
2 11 22 106 44 210 22 105 43 213 46 240 4 28 9 52 10 55 4 6 38 214 50 300 3
25 8 56 10 70 2 14 6 48 9 75 4 28 9 66 11 85 3 19 7 51 9 70 2 19 7 64 10
100 10 93 14 135 21 225 3 44 8 100 10 125 25 294 25 1047 0 1315 -2 22 -6 83
-9 135 -4 52 -8 104 -10 115 -2 11 -7 63 -10 115 -4 52 -8 102 -11 110 -2 8
-6 46 -10 83 -3 37 -8 76 -10 85 -4 23 -17 121 -20 152 -6 60 -37 247 -65 395
-10 55 -21 115 -25 133 -3 18 -12 65 -21 105 -8 39 -17 81 -20 92 -2 11 -6 31
-9 45 -4 14 -8 36 -11 50 -4 19 -97 387 -119 470 -60 225 -209 668 -318 945
-150 382 -407 931 -547 1170 -10 17 -29 50 -42 75 -57 103 -75 133 -181 308
-62 100 -116 190 -122 200 -15 27 -151 226 -284 417 -153 221 -474 623 -661
829 -19 21 -39 44 -45 50 -253 286 -632 657 -925 906 -35 30 -73 63 -85 74
-133 122 -731 574 -847 641 -9 6 -54 35 -100 66 -153 102 -328 212 -465 290
-135 77 -255 144 -348 194 -100 54 -372 190 -471 236 -35 16 -92 42 -126 58
-35 16 -108 47 -163 71 -55 23 -113 48 -130 55 -33 15 -158 63 -318 124 -111
42 -441 154 -577 195 -262 79 -714 194 -895 227 -27 5 -72 14 -100 19 -27 6
-66 13 -85 16 -19 3 -41 7 -47 9 -12 4 -228 40 -300 50 -86 13 -110 16 -133
20 -119 18 -476 53 -720 70 -185 13 -874 27 -883 18z m753 -187 c25 -2 88 -7
140 -10 52 -4 120 -9 150 -11 30 -2 89 -7 130 -10 41 -3 109 -10 151 -15 41
-6 93 -12 115 -15 56 -6 122 -14 153 -20 14 -2 46 -7 70 -10 23 -3 55 -7 70
-10 14 -2 85 -14 156 -25 206 -35 329 -57 354 -64 9 -3 31 -8 48 -11 18 -3 63
-12 100 -21 38 -9 76 -17 86 -20 10 -2 26 -5 35 -8 9 -3 28 -7 42 -10 14 -3
40 -9 58 -15 18 -5 35 -10 37 -10 26 -3 264 -67 410 -111 463 -140 928 -315
1290 -485 278 -131 575 -282 728 -371 32 -19 60 -34 63 -34 3 0 25 -13 49 -30
24 -16 46 -30 49 -30 8 0 384 -234 406 -253 11 -9 23 -17 26 -17 3 0 51 -31
105 -70 55 -38 104 -70 109 -70 4 0 10 -4 12 -8 2 -5 25 -23 53 -42 27 -19 56
-40 65 -46 8 -7 71 -54 140 -105 117 -86 272 -206 330 -255 14 -12 75 -63 135
-115 252 -213 650 -591 836 -794 168 -184 381 -430 474 -549 17 -22 35 -44 40
-50 27 -30 200 -257 268 -352 15 -21 49 -68 74 -104 188 -261 426 -644 607
-975 69 -125 286 -557 286 -568 0 -3 18 -43 39 -89 21 -45 58 -128 81 -183 23
-55 50 -118 60 -140 66 -148 236 -633 311 -885 22 -74 46 -157 54 -183 68
-224 191 -783 230 -1042 1 -11 7 -49 13 -85 13 -81 19 -122 27 -185 4 -27 8
-57 10 -65 2 -8 7 -46 10 -85 4 -38 8 -79 10 -91 2 -11 6 -52 10 -90 3 -38 8
-82 10 -99 2 -16 6 -73 10 -125 3 -52 8 -117 10 -145 27 -317 26 -1053 0
-1360 -2 -27 -7 -84 -10 -125 -7 -88 -13 -149 -20 -205 -2 -22 -7 -62 -10 -90
-3 -27 -10 -81 -15 -120 -5 -38 -12 -90 -15 -115 -4 -25 -8 -56 -10 -70 -2
-14 -11 -68 -20 -120 -27 -166 -34 -208 -40 -240 -10 -51 -15 -76 -21 -105
-13 -74 -67 -319 -89 -405 -13 -52 -27 -110 -30 -129 -3 -19 -8 -38 -12 -43
-5 -9 -24 -82 -38 -145 -10 -45 -116 -383 -155 -498 -23 -66 -43 -124 -44
-130 -2 -5 -6 -17 -9 -25 -3 -8 -29 -78 -57 -155 -54 -146 -145 -372 -186
-463 -13 -29 -36 -80 -50 -115 -31 -74 -265 -548 -327 -662 -278 -512 -663
-1091 -1000 -1500 -27 -33 -66 -80 -86 -105 -197 -243 -548 -617 -832 -885
-110 -105 -272 -251 -335 -304 -16 -13 -56 -47 -89 -76 -428 -367 -1060 -800
-1597 -1094 -29 -16 -82 -45 -118 -65 -108 -59 -364 -185 -600 -294 -94 -44
-391 -166 -525 -217 -213 -81 -648 -227 -745 -250 -8 -2 -82 -22 -165 -45
-167 -46 -411 -106 -465 -115 -19 -3 -51 -10 -70 -15 -33 -9 -55 -13 -125 -25
-16 -3 -61 -12 -100 -20 -57 -11 -231 -41 -355 -60 -14 -2 -38 -6 -55 -9 -118
-20 -423 -53 -645 -71 -41 -4 -95 -8 -120 -10 -265 -24 -1119 -24 -1310 0 -14
1 -65 6 -115 9 -49 4 -106 9 -125 11 -19 2 -66 7 -105 10 -38 4 -81 8 -95 10
-14 2 -54 6 -90 10 -36 3 -92 10 -125 15 -33 5 -80 12 -105 15 -25 3 -85 12
-135 21 -49 8 -102 17 -117 20 -77 12 -102 17 -218 40 -69 14 -136 28 -150 30
-71 13 -236 51 -410 96 -598 153 -1204 371 -1730 621 -138 65 -401 197 -470
236 -30 17 -62 34 -70 38 -28 12 -344 196 -425 246 -736 457 -1346 946 -1922
1540 -153 158 -238 248 -323 347 -30 34 -60 68 -65 74 -28 30 -180 212 -251
301 -236 293 -551 742 -699 993 -6 9 -44 73 -85 142 -41 69 -83 141 -93 160
-11 19 -27 49 -37 65 -78 133 -302 579 -379 755 -35 80 -72 164 -82 187 -41
90 -185 457 -195 493 -2 8 -42 127 -89 265 -46 137 -89 268 -94 290 -5 22 -20
78 -34 125 -24 80 -92 338 -101 384 -3 12 -23 102 -45 201 -21 99 -42 194 -44
210 -3 17 -19 107 -35 200 -16 94 -35 208 -42 255 -6 47 -14 96 -16 110 -2 14
-6 50 -9 80 -6 57 -13 117 -20 160 -2 14 -7 61 -10 105 -4 44 -8 96 -11 115
-2 19 -6 77 -9 128 -4 52 -8 110 -10 130 -6 56 -17 504 -18 712 -1 245 14 564
38 805 9 84 23 213 30 265 2 19 7 58 10 85 3 28 10 77 15 110 5 33 12 80 15
105 10 75 45 281 60 352 8 37 17 82 20 100 3 18 12 61 20 96 8 34 17 77 20 95
3 17 12 57 20 87 8 30 16 67 19 81 2 14 21 88 41 165 20 76 38 144 39 149 8
32 34 121 83 280 179 586 429 1187 713 1720 44 83 207 372 240 425 5 8 39 65
75 125 125 206 352 539 519 760 97 129 244 313 356 445 107 127 176 204 325
366 99 107 391 395 551 544 502 465 1194 969 1789 1303 198 111 233 129 465
245 260 130 350 172 520 244 63 27 124 53 135 58 32 16 332 129 440 167 303
105 658 214 890 272 116 29 459 105 520 116 33 5 136 24 175 31 14 2 41 7 60
9 19 3 44 8 56 10 12 3 39 7 60 10 21 4 49 8 61 10 22 4 155 23 208 30 25 3
129 15 350 40 22 2 85 7 140 10 55 4 120 9 145 11 25 2 117 7 205 10 88 4 161
8 163 9 4 4 716 -5 772 -9z"/>
<path d="M12738 22865 c-2 -2 -77 -6 -167 -10 -90 -3 -183 -8 -205 -10 -23 -2
-77 -7 -121 -10 -75 -5 -118 -9 -225 -20 -69 -7 -153 -17 -175 -19 -43 -6
-131 -18 -145 -21 -8 -1 -40 -6 -70 -10 -46 -6 -386 -62 -485 -81 -16 -3 -79
-16 -140 -30 -60 -13 -120 -26 -132 -29 -80 -14 -482 -120 -653 -172 -340
-102 -806 -274 -1066 -393 -35 -17 -66 -30 -69 -30 -20 0 -529 -251 -710 -350
-338 -186 -604 -352 -928 -579 -60 -42 -119 -83 -131 -91 -38 -26 -251 -184
-256 -191 -3 -4 -27 -24 -55 -44 -59 -45 -295 -241 -349 -290 -12 -11 -53 -47
-91 -80 -176 -153 -566 -538 -729 -720 -54 -60 -113 -126 -130 -145 -333 -366
-773 -972 -1056 -1455 -29 -49 -60 -101 -69 -115 -8 -14 -25 -43 -37 -65 -37
-70 -87 -160 -94 -170 -12 -15 -213 -417 -265 -530 -49 -105 -196 -450 -233
-545 -209 -543 -367 -1083 -467 -1589 -15 -74 -29 -144 -31 -155 -3 -12 -11
-59 -19 -106 -8 -47 -17 -96 -19 -110 -3 -14 -7 -43 -11 -65 -3 -22 -10 -67
-15 -100 -11 -74 -18 -129 -41 -310 -6 -49 -12 -110 -14 -135 -3 -48 -13 -159
-20 -225 -2 -22 -7 -98 -11 -170 -3 -71 -7 -155 -9 -185 -5 -71 -5 -680 -1
-785 5 -125 16 -316 21 -360 4 -37 11 -114 20 -225 2 -25 7 -65 10 -90 3 -25
8 -65 10 -90 8 -64 15 -121 20 -150 2 -14 7 -50 10 -80 4 -30 9 -64 11 -75 2
-11 6 -36 9 -55 3 -19 7 -46 10 -60 3 -14 8 -45 11 -70 3 -25 8 -54 11 -65 3
-17 18 -98 37 -200 3 -16 22 -102 41 -190 41 -180 39 -173 55 -235 6 -25 15
-61 19 -80 5 -19 14 -55 21 -80 6 -25 13 -52 15 -60 2 -8 8 -26 13 -40 5 -14
10 -28 11 -32 0 -5 1 -9 2 -10 0 -2 2 -11 4 -20 6 -34 48 -167 121 -392 276
-842 661 -1630 1167 -2386 90 -134 121 -179 144 -209 6 -9 64 -86 127 -171 63
-85 125 -168 138 -185 55 -71 205 -253 237 -290 20 -23 63 -72 96 -110 215
-248 519 -560 765 -787 104 -96 387 -340 449 -388 18 -14 42 -33 54 -44 12
-10 38 -30 57 -45 19 -14 37 -29 40 -32 3 -3 68 -52 145 -109 77 -57 159 -117
181 -134 177 -132 679 -451 899 -571 39 -21 93 -51 120 -66 75 -43 490 -250
575 -288 472 -212 773 -325 1305 -490 217 -67 783 -204 935 -226 25 -3 61 -10
80 -15 19 -5 80 -16 135 -24 55 -9 111 -18 125 -20 14 -3 43 -7 65 -10 22 -3
51 -7 65 -10 37 -6 128 -17 180 -22 25 -2 59 -6 75 -9 17 -2 59 -7 95 -10 36
-3 79 -8 96 -10 29 -4 146 -14 249 -20 381 -25 1058 -25 1340 0 28 2 81 6 119
9 38 3 90 8 115 11 25 2 69 7 96 9 145 14 477 58 540 71 11 3 36 7 55 9 29 4
201 35 285 51 68 12 370 80 434 96 42 11 83 22 91 24 52 12 189 47 210 54 14
5 52 17 85 26 374 105 866 285 1260 460 227 101 704 340 825 415 8 5 94 55
190 112 150 88 615 389 630 407 3 4 19 15 35 25 46 29 380 281 470 355 99 81
353 299 419 361 163 149 216 201 361 345 177 177 263 268 375 395 41 47 77 87
80 90 19 18 190 222 256 305 72 90 211 273 337 443 60 81 275 405 359 542 342
552 717 1336 894 1869 14 42 29 85 34 96 28 64 144 450 204 675 58 218 152
651 171 787 3 21 10 61 15 88 5 28 12 68 15 90 3 22 7 51 10 65 13 83 38 277
49 385 13 120 15 144 21 215 4 41 8 91 10 110 27 293 27 1170 0 1460 -2 19 -6
73 -10 120 -3 47 -8 101 -10 120 -2 19 -6 58 -10 85 -3 28 -8 70 -10 95 -3 25
-8 62 -10 83 -3 20 -7 56 -10 80 -3 23 -8 53 -10 67 -3 14 -7 41 -9 60 -7 50
-15 100 -36 225 -11 61 -22 126 -25 145 -6 32 -62 306 -70 340 -22 92 -37 158
-40 170 -6 31 -77 295 -80 300 -2 4 -6 17 -8 31 -8 42 -84 288 -142 459 -31
91 -58 170 -59 175 -2 6 -7 19 -11 30 -4 11 -32 85 -62 165 -30 80 -58 154
-63 165 -5 11 -36 83 -68 160 -146 348 -342 737 -562 1120 -17 29 -60 101
-125 209 -68 112 -318 482 -420 621 -97 133 -357 465 -396 505 -8 8 -27 31
-43 50 -16 19 -52 62 -82 95 -29 33 -61 70 -72 82 -125 145 -490 518 -647 662
-39 35 -90 82 -115 105 -214 198 -593 503 -870 698 -131 92 -535 361 -555 369
-5 2 -71 40 -145 85 -822 493 -1833 896 -2765 1104 -27 7 -58 14 -67 16 -36 8
-55 12 -133 29 -44 9 -91 19 -105 21 -14 3 -63 12 -110 20 -47 9 -94 18 -105
19 -62 10 -173 28 -189 31 -11 2 -56 8 -100 14 -45 6 -92 13 -106 15 -14 2
-45 7 -70 9 -25 3 -65 8 -90 11 -25 3 -65 8 -90 10 -25 2 -70 7 -100 10 -74 7
-147 13 -255 20 -49 3 -128 8 -175 11 -85 6 -787 14 -792 9z"/>
</g>
</svg>
